<svg version="1.1" viewBox="0.0 0.0 600.0 371.0" fill="none" stroke="none" stroke-linecap="square" stroke-miterlimit="10" width="600" height="371" xmlns:xlink="http://www.w3.org/1999/xlink" xmlns="http://www.w3.org/2000/svg"><path fill="#ffffff" d="M0 0L600.0 0L600.0 371.0L0 371.0L0 0Z" fill-rule="nonzero"/><path fill="#4285f4" d="M300.0 54.916668C364.44962 54.916668 421.5695 96.416664 441.4855 157.7119C461.40155 219.00714 439.5837 286.15555 387.44284 324.0381L300.0 203.68333Z" fill-rule="nonzero"/><path fill="#34a853" d="M212.55714 83.328575C237.97357 64.86246 268.58356 54.916668 300.0 54.916668L300.0 203.68333Z" fill-rule="nonzero"/><path fill="#fbbc04" d="M158.5145 249.65475C138.59846 188.35953 160.4163 121.21111 212.55714 83.328575L300.0 203.68333Z" fill-rule="nonzero"/><path fill="#ea4335" d="M387.44284 324.0381C348.9167 352.029 299.3188 359.88452 254.02856 345.16885C208.73836 330.45316 173.23018 294.94498 158.5145 249.65475L300.0 203.68333Z" fill-rule="nonzero"/><path fill="#1a1a1a" d="M21.659374 65.916664L21.659374 58.33854L18.83125 58.33854L18.83125 57.322914L25.64375 57.322914L25.64375 58.33854L22.8 58.33854L22.8 65.916664L21.659374 65.916664ZM27.4875 65.916664L25.58125 59.697914L26.675 59.697914L27.659374 63.291664L28.034374 64.61979Q28.065624 64.52604 28.3625 63.33854L29.346874 59.697914L30.425 59.697914L31.3625 63.30729L31.675 64.49479L32.034374 63.291664L33.096874 59.697914L34.128124 59.697914L32.175 65.916664L31.08125 65.916664L30.096874 62.18229L29.846874 61.135414L28.596874 65.916664L27.4875 65.916664ZM35.346874 58.541664L35.346874 57.322914L36.409374 57.322914L36.409374 58.541664L35.346874 58.541664ZM35.346874 65.916664L35.346874 59.697914L36.409374 59.697914L36.409374 65.916664L35.346874 65.916664ZM40.64375 64.979164L40.8 65.90104Q40.346874 65.99479 40.003124 65.99479Q39.425 65.99479 39.1125 65.822914Q38.8 65.635414 38.659374 65.33854Q38.534374 65.041664 38.534374 64.08854L38.534374 60.510414L37.76875 60.510414L37.76875 59.697914L38.534374 59.697914L38.534374 58.15104L39.58125 57.52604L39.58125 59.697914L40.64375 59.697914L40.64375 60.510414L39.58125 60.510414L39.58125 64.15104Q39.58125 64.604164 39.628124 64.729164Q39.690624 64.854164 39.815624 64.93229Q39.940624 65.010414 40.175 65.010414Q40.3625 65.010414 40.64375 64.979164ZM43.64375 64.979164L43.8 65.90104Q43.346874 65.99479 43.003124 65.99479Q42.425 65.99479 42.1125 65.822914Q41.8 65.635414 41.659374 65.33854Q41.534374 65.041664 41.534374 64.08854L41.534374 60.510414L40.76875 60.510414L40.76875 59.697914L41.534374 59.697914L41.534374 58.15104L42.58125 57.52604L42.58125 59.697914L43.64375 59.697914L43.64375 60.510414L42.58125 60.510414L42.58125 64.15104Q42.58125 64.604164 42.628124 64.729164Q42.690624 64.854164 42.815624 64.93229Q42.940624 65.010414 43.175 65.010414Q43.3625 65.010414 43.64375 64.979164ZM48.596874 63.916664L49.690624 64.041664Q49.440624 64.99479 48.7375 65.52604Q48.034374 66.05729 46.95625 66.05729Q45.596874 66.05729 44.784374 65.21354Q43.9875 64.36979 43.9875 62.854164Q43.9875 61.291664 44.8 60.43229Q45.6125 59.55729 46.89375 59.55729Q48.14375 59.55729 48.925 60.40104Q49.721874 61.24479 49.721874 62.791664Q49.721874 62.885414 49.721874 63.072914L45.08125 63.072914Q45.14375 64.104164 45.659374 64.65104Q46.175 65.18229 46.95625 65.18229Q47.534374 65.18229 47.940624 64.885414Q48.3625 64.572914 48.596874 63.916664ZM45.14375 62.21354L48.6125 62.21354Q48.55 61.416664 48.221874 61.02604Q47.70625 60.416664 46.909374 60.416664Q46.175 60.416664 45.675 60.90104Q45.190624 61.385414 45.14375 62.21354ZM51.33125 65.916664L51.33125 59.697914L52.284374 59.697914L52.284374 60.635414Q52.64375 59.979164 52.940624 59.77604Q53.253124 59.55729 53.628124 59.55729Q54.159374 59.55729 54.70625 59.885414L54.346874 60.86979Q53.95625 60.635414 53.58125 60.635414Q53.221874 60.635414 52.940624 60.854164Q52.675 61.05729 52.565624 61.43229Q52.378124 61.99479 52.378124 62.65104L52.378124 65.916664L51.33125 65.916664Z" fill-rule="nonzero"/><path fill="#9e9e9e" d="M23.01875 82.916664L21.971874 82.916664L21.971874 76.197914Q21.58125 76.55729 20.95625 76.93229Q20.346874 77.291664 19.8625 77.46354L19.8625 76.447914Q20.7375 76.02604 21.39375 75.447914Q22.065624 74.854164 22.346874 74.291664L23.01875 74.291664L23.01875 82.916664ZM26.05 78.68229Q26.05 77.15104 26.3625 76.229164Q26.675 75.291664 27.284374 74.791664Q27.909374 74.291664 28.846874 74.291664Q29.534374 74.291664 30.05 74.572914Q30.58125 74.854164 30.925 75.385414Q31.26875 75.90104 31.45625 76.65104Q31.64375 77.40104 31.64375 78.68229Q31.64375 80.197914 31.33125 81.11979Q31.034374 82.041664 30.409374 82.55729Q29.8 83.05729 28.846874 83.05729Q27.6125 83.05729 26.89375 82.166664Q26.05 81.104164 26.05 78.68229ZM27.128124 78.68229Q27.128124 80.791664 27.628124 81.49479Q28.128124 82.197914 28.846874 82.197914Q29.58125 82.197914 30.065624 81.49479Q30.565624 80.791664 30.565624 78.68229Q30.565624 76.55729 30.065624 75.86979Q29.58125 75.166664 28.83125 75.166664Q28.1125 75.166664 27.675 75.77604Q27.128124 76.55729 27.128124 78.68229ZM33.64375 82.916664L33.64375 81.71354L34.846874 81.71354L34.846874 82.916664L33.64375 82.916664ZM36.05 78.68229Q36.05 77.15104 36.3625 76.229164Q36.675 75.291664 37.284374 74.791664Q37.909374 74.291664 38.846874 74.291664Q39.534374 74.291664 40.05 74.572914Q40.58125 74.854164 40.925 75.385414Q41.26875 75.90104 41.45625 76.65104Q41.64375 77.40104 41.64375 78.68229Q41.64375 80.197914 41.33125 81.11979Q41.034374 82.041664 40.409374 82.55729Q39.8 83.05729 38.846874 83.05729Q37.6125 83.05729 36.89375 82.166664Q36.05 81.104164 36.05 78.68229ZM37.128124 78.68229Q37.128124 80.791664 37.628124 81.49479Q38.128124 82.197914 38.846874 82.197914Q39.58125 82.197914 40.065624 81.49479Q40.565624 80.791664 40.565624 78.68229Q40.565624 76.55729 40.065624 75.86979Q39.58125 75.166664 38.83125 75.166664Q38.1125 75.166664 37.675 75.77604Q37.128124 76.55729 37.128124 78.68229ZM43.253124 76.385414Q43.253124 75.46354 43.70625 74.822914Q44.175 74.18229 45.05 74.18229Q45.8625 74.18229 46.39375 74.760414Q46.925 75.33854 46.925 76.447914Q46.925 77.541664 46.378124 78.135414Q45.846874 78.71354 45.065624 78.71354Q44.284374 78.71354 43.76875 78.135414Q43.253124 77.55729 43.253124 76.385414ZM45.08125 74.90104Q44.690624 74.90104 44.425 75.24479Q44.175 75.58854 44.175 76.49479Q44.175 77.322914 44.425 77.666664Q44.690624 77.99479 45.08125 77.99479Q45.4875 77.99479 45.7375 77.65104Q46.003124 77.30729 46.003124 76.416664Q46.003124 75.572914 45.7375 75.24479Q45.471874 74.90104 45.08125 74.90104ZM45.08125 83.229164L49.784374 74.18229L50.64375 74.18229L45.95625 83.229164L45.08125 83.229164ZM48.8 80.90104Q48.8 79.979164 49.253124 79.33854Q49.721874 78.697914 50.6125 78.697914Q51.425 78.697914 51.95625 79.27604Q52.4875 79.83854 52.4875 80.96354Q52.4875 82.05729 51.940624 82.65104Q51.409374 83.229164 50.6125 83.229164Q49.846874 83.229164 49.315624 82.65104Q48.8 82.072914 48.8 80.90104ZM50.64375 79.416664Q50.2375 79.416664 49.971874 79.760414Q49.721874 80.104164 49.721874 81.010414Q49.721874 81.822914 49.9875 82.166664Q50.253124 82.510414 50.64375 82.510414Q51.034374 82.510414 51.3 82.166664Q51.565624 81.822914 51.565624 80.916664Q51.565624 80.08854 51.3 79.760414Q51.034374 79.416664 50.64375 79.416664Z" fill-rule="nonzero"/><path stroke="#757575" stroke-width="1.0" stroke-linecap="butt" d="M18.55 70.416664L145.23334 70.416664L256.32715 69.2721" fill-rule="nonzero"/><path fill="#9e9e9e" d="M258.32715 69.2721C258.32715 68.167534 257.4317 67.2721 256.32715 67.2721C255.22258 67.2721 254.32715 68.167534 254.32715 69.2721C254.32715 70.37667 255.22258 71.2721 256.32715 71.2721C257.4317 71.2721 258.32715 70.37667 258.32715 69.2721" fill-rule="nonzero"/><path fill="#1a1a1a" d="M21.659374 155.51048L21.659374 147.93236L18.83125 147.93236L18.83125 146.91673L25.64375 146.91673L25.64375 147.93236L22.8 147.93236L22.8 155.51048L21.659374 155.51048ZM26.346874 148.13548L26.346874 146.91673L27.409374 146.91673L27.409374 148.13548L26.346874 148.13548ZM26.346874 155.51048L26.346874 149.29173L27.409374 149.29173L27.409374 155.51048L26.346874 155.51048ZM29.346874 155.51048L29.346874 146.91673L30.409374 146.91673L30.409374 151.82298L32.89375 149.29173L34.26875 149.29173L31.878124 151.58861L34.503124 155.51048L33.20625 155.51048L31.14375 152.32298L30.409374 153.04173L30.409374 155.51048L29.346874 155.51048ZM37.659374 155.51048L37.659374 147.93236L34.83125 147.93236L34.83125 146.91673L41.64375 146.91673L41.64375 147.93236L38.8 147.93236L38.8 155.51048L37.659374 155.51048ZM41.95625 152.40111Q41.95625 150.66673 42.909374 149.83861Q43.70625 149.15111 44.8625 149.15111Q46.14375 149.15111 46.95625 149.99486Q47.784374 150.82298 47.784374 152.30736Q47.784374 153.51048 47.425 154.19798Q47.065624 154.88548 46.3625 155.27611Q45.675 155.65111 44.8625 155.65111Q43.565624 155.65111 42.753124 154.82298Q41.95625 153.97923 41.95625 152.40111ZM43.034374 152.40111Q43.034374 153.58861 43.55 154.18236Q44.08125 154.77611 44.8625 154.77611Q45.659374 154.77611 46.175 154.18236Q46.690624 153.58861 46.690624 152.36986Q46.690624 151.21361 46.159374 150.61986Q45.64375 150.02611 44.8625 150.02611Q44.08125 150.02611 43.55 150.61986Q43.034374 151.19798 43.034374 152.40111ZM49.346874 155.51048L49.346874 146.91673L50.409374 146.91673L50.409374 151.82298L52.89375 149.29173L54.26875 149.29173L51.878124 151.58861L54.503124 155.51048L53.20625 155.51048L51.14375 152.32298L50.409374 153.04173L50.409374 155.51048L49.346874 155.51048Z" fill-rule="nonzero"/><path fill="#9e9e9e" d="M24.596874 171.49486L24.596874 172.51048L18.909374 172.51048Q18.909374 172.13548 19.034374 171.77611Q19.253124 171.19798 19.721874 170.63548Q20.20625 170.07298 21.1125 169.33861Q22.51875 168.18236 23.003124 167.51048Q23.503124 166.83861 23.503124 166.24486Q23.503124 165.61986 23.05 165.19798Q22.596874 164.76048 21.878124 164.76048Q21.1125 164.76048 20.659374 165.21361Q20.20625 165.66673 20.190624 166.47923L19.1125 166.36986Q19.221874 165.15111 19.940624 164.52611Q20.675 163.88548 21.909374 163.88548Q23.14375 163.88548 23.8625 164.57298Q24.58125 165.26048 24.58125 166.27611Q24.58125 166.79173 24.3625 167.29173Q24.159374 167.77611 23.659374 168.33861Q23.175 168.88548 22.05 169.83861Q21.096874 170.63548 20.815624 170.93236Q20.55 171.21361 20.378124 171.49486L24.596874 171.49486ZM26.05 168.27611Q26.05 166.74486 26.3625 165.82298Q26.675 164.88548 27.284374 164.38548Q27.909374 163.88548 28.846874 163.88548Q29.534374 163.88548 30.05 164.16673Q30.58125 164.44798 30.925 164.97923Q31.26875 165.49486 31.45625 166.24486Q31.64375 166.99486 31.64375 168.27611Q31.64375 169.79173 31.33125 170.71361Q31.034374 171.63548 30.409374 172.15111Q29.8 172.65111 28.846874 172.65111Q27.6125 172.65111 26.89375 171.76048Q26.05 170.69798 26.05 168.27611ZM27.128124 168.27611Q27.128124 170.38548 27.628124 171.08861Q28.128124 171.79173 28.846874 171.79173Q29.58125 171.79173 30.065624 171.08861Q30.565624 170.38548 30.565624 168.27611Q30.565624 166.15111 30.065624 165.46361Q29.58125 164.76048 28.83125 164.76048Q28.1125 164.76048 27.675 165.36986Q27.128124 166.15111 27.128124 168.27611ZM33.64375 172.51048L33.64375 171.30736L34.846874 171.30736L34.846874 172.51048L33.64375 172.51048ZM36.05 168.27611Q36.05 166.74486 36.3625 165.82298Q36.675 164.88548 37.284374 164.38548Q37.909374 163.88548 38.846874 163.88548Q39.534374 163.88548 40.05 164.16673Q40.58125 164.44798 40.925 164.97923Q41.26875 165.49486 41.45625 166.24486Q41.64375 166.99486 41.64375 168.27611Q41.64375 169.79173 41.33125 170.71361Q41.034374 171.63548 40.409374 172.15111Q39.8 172.65111 38.846874 172.65111Q37.6125 172.65111 36.89375 171.76048Q36.05 170.69798 36.05 168.27611ZM37.128124 168.27611Q37.128124 170.38548 37.628124 171.08861Q38.128124 171.79173 38.846874 171.79173Q39.58125 171.79173 40.065624 171.08861Q40.565624 170.38548 40.565624 168.27611Q40.565624 166.15111 40.065624 165.46361Q39.58125 164.76048 38.83125 164.76048Q38.1125 164.76048 37.675 165.36986Q37.128124 166.15111 37.128124 168.27611ZM43.253124 165.97923Q43.253124 165.05736 43.70625 164.41673Q44.175 163.77611 45.05 163.77611Q45.8625 163.77611 46.39375 164.35423Q46.925 164.93236 46.925 166.04173Q46.925 167.13548 46.378124 167.72923Q45.846874 168.30736 45.065624 168.30736Q44.284374 168.30736 43.76875 167.72923Q43.253124 167.15111 43.253124 165.97923ZM45.08125 164.49486Q44.690624 164.49486 44.425 164.83861Q44.175 165.18236 44.175 166.08861Q44.175 166.91673 44.425 167.26048Q44.690624 167.58861 45.08125 167.58861Q45.4875 167.58861 45.7375 167.24486Q46.003124 166.90111 46.003124 166.01048Q46.003124 165.16673 45.7375 164.83861Q45.471874 164.49486 45.08125 164.49486ZM45.08125 172.82298L49.784374 163.77611L50.64375 163.77611L45.95625 172.82298L45.08125 172.82298ZM48.8 170.49486Q48.8 169.57298 49.253124 168.93236Q49.721874 168.29173 50.6125 168.29173Q51.425 168.29173 51.95625 168.86986Q52.4875 169.43236 52.4875 170.55736Q52.4875 171.65111 51.940624 172.24486Q51.409374 172.82298 50.6125 172.82298Q49.846874 172.82298 49.315624 172.24486Q48.8 171.66673 48.8 170.49486ZM50.64375 169.01048Q50.2375 169.01048 49.971874 169.35423Q49.721874 169.69798 49.721874 170.60423Q49.721874 171.41673 49.9875 171.76048Q50.253124 172.10423 50.64375 172.10423Q51.034374 172.10423 51.3 171.76048Q51.565624 171.41673 51.565624 170.51048Q51.565624 169.68236 51.3 169.35423Q51.034374 169.01048 50.64375 169.01048Z" fill-rule="nonzero"/><path stroke="#757575" stroke-width="1.0" stroke-linecap="butt" d="M18.55 160.01048L145.23334 160.01048L165.58876 160.01048" fill-rule="nonzero"/><path fill="#9e9e9e" d="M167.58876 160.01048C167.58876 158.90591 166.69334 158.01048 165.58876 158.01048C164.48419 158.01048 163.58876 158.90591 163.58876 160.01048C163.58876 161.11505 164.48419 162.01048 165.58876 162.01048C166.69334 162.01048 167.58876 161.11505 167.58876 160.01048" fill-rule="nonzero"/><path fill="#1a1a1a" d="M19.675 332.45L19.675 323.85626L20.8 323.85626L20.8 332.45L19.675 332.45ZM22.346874 332.45L22.346874 326.23126L23.284374 326.23126L23.284374 327.10626Q23.971874 326.09064 25.26875 326.09064Q25.83125 326.09064 26.3 326.29376Q26.784374 326.4969 27.01875 326.825Q27.253124 327.15314 27.346874 327.59064Q27.39375 327.8875 27.39375 328.6219L27.39375 332.45L26.346874 332.45L26.346874 328.66876Q26.346874 328.0125 26.221874 327.7Q26.096874 327.3875 25.784374 327.2Q25.471874 326.9969 25.05 326.9969Q24.378124 326.9969 23.878124 327.4344Q23.39375 327.85626 23.39375 329.04376L23.39375 332.45L22.346874 332.45ZM28.925 330.59064L29.95625 330.4344Q30.05 331.0594 30.440624 331.3875Q30.846874 331.71564 31.58125 331.71564Q32.3 331.71564 32.64375 331.4344Q33.003124 331.1375 33.003124 330.73126Q33.003124 330.3719 32.690624 330.16876Q32.471874 330.02814 31.6125 329.8094Q30.45625 329.5125 30.003124 329.3094Q29.565624 329.09064 29.33125 328.71564Q29.096874 328.34064 29.096874 327.8719Q29.096874 327.46564 29.284374 327.10626Q29.471874 326.7469 29.8 326.5125Q30.05 326.34064 30.471874 326.21564Q30.89375 326.09064 31.39375 326.09064Q32.1125 326.09064 32.659374 326.3094Q33.221874 326.5125 33.4875 326.8719Q33.753124 327.23126 33.846874 327.825L32.815624 327.96564Q32.753124 327.4969 32.409374 327.23126Q32.08125 326.95 31.45625 326.95Q30.7375 326.95 30.425 327.2Q30.1125 327.4344 30.1125 327.7625Q30.1125 327.96564 30.2375 328.1219Q30.378124 328.29376 30.64375 328.40314Q30.8 328.46564 31.58125 328.66876Q32.70625 328.98126 33.14375 329.16876Q33.58125 329.35626 33.83125 329.71564Q34.08125 330.075 34.08125 330.6219Q34.08125 331.15314 33.76875 331.6219Q33.471874 332.075 32.89375 332.34064Q32.315624 332.59064 31.58125 332.59064Q30.3625 332.59064 29.721874 332.09064Q29.096874 331.575 28.925 330.59064ZM38.64375 331.5125L38.8 332.4344Q38.346874 332.52814 38.003124 332.52814Q37.425 332.52814 37.1125 332.35626Q36.8 332.16876 36.659374 331.8719Q36.534374 331.575 36.534374 330.6219L36.534374 327.04376L35.76875 327.04376L35.76875 326.23126L36.534374 326.23126L36.534374 324.6844L37.58125 324.0594L37.58125 326.23126L38.64375 326.23126L38.64375 327.04376L37.58125 327.04376L37.58125 330.6844Q37.58125 331.1375 37.628124 331.2625Q37.690624 331.3875 37.815624 331.46564Q37.940624 331.54376 38.175 331.54376Q38.3625 331.54376 38.64375 331.5125ZM43.409374 331.6844Q42.815624 332.1844 42.26875 332.3875Q41.7375 332.59064 41.1125 332.59064Q40.08125 332.59064 39.534374 332.09064Q38.9875 331.59064 38.9875 330.8094Q38.9875 330.35626 39.190624 329.98126Q39.39375 329.59064 39.7375 329.3719Q40.08125 329.1375 40.503124 329.02814Q40.8 328.9344 41.440624 328.85626Q42.70625 328.71564 43.315624 328.4969Q43.315624 328.27814 43.315624 328.23126Q43.315624 327.575 43.01875 327.3094Q42.6125 326.96564 41.815624 326.96564Q41.08125 326.96564 40.721874 327.23126Q40.3625 327.48126 40.190624 328.1375L39.159374 327.9969Q39.3 327.34064 39.628124 326.9344Q39.95625 326.52814 40.565624 326.3094Q41.175 326.09064 41.971874 326.09064Q42.76875 326.09064 43.26875 326.27814Q43.76875 326.46564 44.003124 326.7469Q44.2375 327.02814 44.33125 327.46564Q44.378124 327.73126 44.378124 328.4344L44.378124 329.84064Q44.378124 331.3094 44.440624 331.7Q44.51875 332.09064 44.721874 332.45L43.6125 332.45Q43.45625 332.1219 43.409374 331.6844ZM43.315624 329.325Q42.7375 329.5594 41.596874 329.73126Q40.940624 329.825 40.675 329.95Q40.409374 330.0594 40.253124 330.27814Q40.1125 330.4969 40.1125 330.77814Q40.1125 331.2 40.425 331.48126Q40.753124 331.7625 41.3625 331.7625Q41.971874 331.7625 42.440624 331.4969Q42.925 331.23126 43.14375 330.7625Q43.315624 330.40314 43.315624 329.71564L43.315624 329.325ZM46.14375 332.96564L47.175 333.1219Q47.2375 333.59064 47.534374 333.8094Q47.925 334.10626 48.596874 334.10626Q49.33125 334.10626 49.721874 333.8094Q50.128124 333.5125 50.26875 332.9969Q50.3625 332.66876 50.346874 331.6375Q49.659374 332.45 48.628124 332.45Q47.346874 332.45 46.64375 331.52814Q45.940624 330.59064 45.940624 329.3094Q45.940624 328.41876 46.253124 327.66876Q46.58125 326.90314 47.190624 326.4969Q47.8 326.09064 48.628124 326.09064Q49.7375 326.09064 50.45625 326.98126L50.45625 326.23126L51.425 326.23126L51.425 331.60626Q51.425 333.0594 51.128124 333.66876Q50.83125 334.27814 50.190624 334.6219Q49.55 334.98126 48.6125 334.98126Q47.503124 334.98126 46.815624 334.48126Q46.128124 333.98126 46.14375 332.96564ZM47.01875 329.23126Q47.01875 330.45 47.503124 331.0125Q47.9875 331.575 48.721874 331.575Q49.45625 331.575 49.940624 331.0125Q50.440624 330.45 50.440624 329.2625Q50.440624 328.1219 49.925 327.54376Q49.425 326.96564 48.70625 326.96564Q48.003124 326.96564 47.503124 327.54376Q47.01875 328.10626 47.01875 329.23126ZM53.33125 332.45L53.33125 326.23126L54.284374 326.23126L54.284374 327.16876Q54.64375 326.5125 54.940624 326.3094Q55.253124 326.09064 55.628124 326.09064Q56.159374 326.09064 56.70625 326.41876L56.346874 327.40314Q55.95625 327.16876 55.58125 327.16876Q55.221874 327.16876 54.940624 327.3875Q54.675 327.59064 54.565624 327.96564Q54.378124 328.52814 54.378124 329.1844L54.378124 332.45L53.33125 332.45ZM61.409374 331.6844Q60.815624 332.1844 60.26875 332.3875Q59.7375 332.59064 59.1125 332.59064Q58.08125 332.59064 57.534374 332.09064Q56.9875 331.59064 56.9875 330.8094Q56.9875 330.35626 57.190624 329.98126Q57.39375 329.59064 57.7375 329.3719Q58.08125 329.1375 58.503124 329.02814Q58.8 328.9344 59.440624 328.85626Q60.70625 328.71564 61.315624 328.4969Q61.315624 328.27814 61.315624 328.23126Q61.315624 327.575 61.01875 327.3094Q60.6125 326.96564 59.815624 326.96564Q59.08125 326.96564 58.721874 327.23126Q58.3625 327.48126 58.190624 328.1375L57.159374 327.9969Q57.3 327.34064 57.628124 326.9344Q57.95625 326.52814 58.565624 326.3094Q59.175 326.09064 59.971874 326.09064Q60.76875 326.09064 61.26875 326.27814Q61.76875 326.46564 62.003124 326.7469Q62.2375 327.02814 62.33125 327.46564Q62.378124 327.73126 62.378124 328.4344L62.378124 329.84064Q62.378124 331.3094 62.440624 331.7Q62.51875 332.09064 62.721874 332.45L61.6125 332.45Q61.45625 332.1219 61.409374 331.6844ZM61.315624 329.325Q60.7375 329.5594 59.596874 329.73126Q58.940624 329.825 58.675 329.95Q58.409374 330.0594 58.253124 330.27814Q58.1125 330.4969 58.1125 330.77814Q58.1125 331.2 58.425 331.48126Q58.753124 331.7625 59.3625 331.7625Q59.971874 331.7625 60.440624 331.4969Q60.925 331.23126 61.14375 330.7625Q61.315624 330.40314 61.315624 329.71564L61.315624 329.325ZM64.34688 332.45L64.34688 326.23126L65.28438 326.23126L65.28438 327.10626Q65.58125 326.6375 66.06563 326.3719Q66.55 326.09064 67.175 326.09064Q67.8625 326.09064 68.3 326.3719Q68.75313 326.65314 68.925 327.16876Q69.675 326.09064 70.84688 326.09064Q71.78438 326.09064 72.26875 326.60626Q72.76875 327.10626 72.76875 328.1844L72.76875 332.45L71.72188 332.45L71.72188 328.52814Q71.72188 327.90314 71.6125 327.6219Q71.51875 327.34064 71.25313 327.16876Q70.9875 326.9969 70.6125 326.9969Q69.95625 326.9969 69.51875 327.4344Q69.09688 327.8719 69.09688 328.84064L69.09688 332.45L68.03438 332.45L68.03438 328.40314Q68.03438 327.7 67.76875 327.35626Q67.51875 326.9969 66.94063 326.9969Q66.4875 326.9969 66.1125 327.23126Q65.7375 327.46564 65.56563 327.91876Q65.39375 328.3719 65.39375 329.21564L65.39375 332.45L64.34688 332.45Z" fill-rule="nonzero"/><path fill="#9e9e9e" d="M19.05 347.1844L20.1125 347.04376Q20.284374 347.9344 20.721874 348.34064Q21.159374 348.73126 21.784374 348.73126Q22.534374 348.73126 23.05 348.21564Q23.565624 347.7 23.565624 346.9344Q23.565624 346.21564 23.08125 345.7469Q22.6125 345.2625 21.878124 345.2625Q21.58125 345.2625 21.128124 345.3875L21.253124 344.45Q21.3625 344.46564 21.425 344.46564Q22.096874 344.46564 22.628124 344.1219Q23.175 343.7625 23.175 343.02814Q23.175 342.45 22.784374 342.075Q22.39375 341.6844 21.76875 341.6844Q21.159374 341.6844 20.7375 342.075Q20.33125 342.46564 20.221874 343.23126L19.159374 343.04376Q19.346874 341.9969 20.034374 341.41876Q20.721874 340.825 21.7375 340.825Q22.440624 340.825 23.034374 341.1375Q23.628124 341.4344 23.940624 341.95Q24.253124 342.46564 24.253124 343.0594Q24.253124 343.60626 23.95625 344.075Q23.659374 344.52814 23.08125 344.79376Q23.83125 344.96564 24.253124 345.52814Q24.675 346.075 24.675 346.91876Q24.675 348.04376 23.846874 348.825Q23.034374 349.60626 21.784374 349.60626Q20.659374 349.60626 19.909374 348.9344Q19.159374 348.2469 19.05 347.1844ZM26.05 345.21564Q26.05 343.6844 26.3625 342.7625Q26.675 341.825 27.284374 341.325Q27.909374 340.825 28.846874 340.825Q29.534374 340.825 30.05 341.10626Q30.58125 341.3875 30.925 341.91876Q31.26875 342.4344 31.45625 343.1844Q31.64375 343.9344 31.64375 345.21564Q31.64375 346.73126 31.33125 347.65314Q31.034374 348.575 30.409374 349.09064Q29.8 349.59064 28.846874 349.59064Q27.6125 349.59064 26.89375 348.7Q26.05 347.6375 26.05 345.21564ZM27.128124 345.21564Q27.128124 347.325 27.628124 348.02814Q28.128124 348.73126 28.846874 348.73126Q29.58125 348.73126 30.065624 348.02814Q30.565624 347.325 30.565624 345.21564Q30.565624 343.09064 30.065624 342.40314Q29.58125 341.7 28.83125 341.7Q28.1125 341.7 27.675 342.3094Q27.128124 343.09064 27.128124 345.21564ZM33.64375 349.45L33.64375 348.2469L34.846874 348.2469L34.846874 349.45L33.64375 349.45ZM36.05 345.21564Q36.05 343.6844 36.3625 342.7625Q36.675 341.825 37.284374 341.325Q37.909374 340.825 38.846874 340.825Q39.534374 340.825 40.05 341.10626Q40.58125 341.3875 40.925 341.91876Q41.26875 342.4344 41.45625 343.1844Q41.64375 343.9344 41.64375 345.21564Q41.64375 346.73126 41.33125 347.65314Q41.034374 348.575 40.409374 349.09064Q39.8 349.59064 38.846874 349.59064Q37.6125 349.59064 36.89375 348.7Q36.05 347.6375 36.05 345.21564ZM37.128124 345.21564Q37.128124 347.325 37.628124 348.02814Q38.128124 348.73126 38.846874 348.73126Q39.58125 348.73126 40.065624 348.02814Q40.565624 347.325 40.565624 345.21564Q40.565624 343.09064 40.065624 342.40314Q39.58125 341.7 38.83125 341.7Q38.1125 341.7 37.675 342.3094Q37.128124 343.09064 37.128124 345.21564ZM43.253124 342.91876Q43.253124 341.9969 43.70625 341.35626Q44.175 340.71564 45.05 340.71564Q45.8625 340.71564 46.39375 341.29376Q46.925 341.8719 46.925 342.98126Q46.925 344.075 46.378124 344.66876Q45.846874 345.2469 45.065624 345.2469Q44.284374 345.2469 43.76875 344.66876Q43.253124 344.09064 43.253124 342.91876ZM45.08125 341.4344Q44.690624 341.4344 44.425 341.77814Q44.175 342.1219 44.175 343.02814Q44.175 343.85626 44.425 344.2Q44.690624 344.52814 45.08125 344.52814Q45.4875 344.52814 45.7375 344.1844Q46.003124 343.84064 46.003124 342.95Q46.003124 342.10626 45.7375 341.77814Q45.471874 341.4344 45.08125 341.4344ZM45.08125 349.7625L49.784374 340.71564L50.64375 340.71564L45.95625 349.7625L45.08125 349.7625ZM48.8 347.4344Q48.8 346.5125 49.253124 345.8719Q49.721874 345.23126 50.6125 345.23126Q51.425 345.23126 51.95625 345.8094Q52.4875 346.3719 52.4875 347.4969Q52.4875 348.59064 51.940624 349.1844Q51.409374 349.7625 50.6125 349.7625Q49.846874 349.7625 49.315624 349.1844Q48.8 348.60626 48.8 347.4344ZM50.64375 345.95Q50.2375 345.95 49.971874 346.29376Q49.721874 346.6375 49.721874 347.54376Q49.721874 348.35626 49.9875 348.7Q50.253124 349.04376 50.64375 349.04376Q51.034374 349.04376 51.3 348.7Q51.565624 348.35626 51.565624 347.45Q51.565624 346.6219 51.3 346.29376Q51.034374 345.95 50.64375 345.95Z" fill-rule="nonzero"/><path stroke="#757575" stroke-width="1.0" stroke-linecap="butt" d="M18.55 336.95L145.23334 336.95L256.32715 338.09457" fill-rule="nonzero"/><path fill="#9e9e9e" d="M258.32715 338.09457C258.32715 336.99 257.4317 336.09457 256.32715 336.09457C255.22258 336.09457 254.32715 336.99 254.32715 338.09457C254.32715 339.19913 255.22258 340.09457 256.32715 340.09457C257.4317 340.09457 258.32715 339.19913 258.32715 338.09457" fill-rule="nonzero"/><path fill="#1a1a1a" d="M528.4344 155.51048L528.4344 146.91673L534.23126 146.91673L534.23126 147.93236L529.575 147.93236L529.575 150.58861L533.60626 150.58861L533.60626 151.60423L529.575 151.60423L529.575 155.51048L528.4344 155.51048ZM539.3094 154.74486Q538.71564 155.24486 538.16876 155.44798Q537.6375 155.65111 537.0125 155.65111Q535.98126 155.65111 535.4344 155.15111Q534.8875 154.65111 534.8875 153.86986Q534.8875 153.41673 535.09064 153.04173Q535.29376 152.65111 535.6375 152.43236Q535.98126 152.19798 536.40314 152.08861Q536.7 151.99486 537.34064 151.91673Q538.60626 151.77611 539.21564 151.55736Q539.21564 151.33861 539.21564 151.29173Q539.21564 150.63548 538.91876 150.36986Q538.5125 150.02611 537.71564 150.02611Q536.98126 150.02611 536.6219 150.29173Q536.2625 150.54173 536.09064 151.19798L535.0594 151.05736Q535.2 150.40111 535.52814 149.99486Q535.85626 149.58861 536.46564 149.36986Q537.075 149.15111 537.8719 149.15111Q538.66876 149.15111 539.16876 149.33861Q539.66876 149.52611 539.90314 149.80736Q540.1375 150.08861 540.23126 150.52611Q540.27814 150.79173 540.27814 151.49486L540.27814 152.90111Q540.27814 154.36986 540.34064 154.76048Q540.41876 155.15111 540.6219 155.51048L539.5125 155.51048Q539.35626 155.18236 539.3094 154.74486ZM539.21564 152.38548Q538.6375 152.61986 537.4969 152.79173Q536.84064 152.88548 536.575 153.01048Q536.3094 153.11986 536.15314 153.33861Q536.0125 153.55736 536.0125 153.83861Q536.0125 154.26048 536.325 154.54173Q536.65314 154.82298 537.2625 154.82298Q537.8719 154.82298 538.34064 154.55736Q538.825 154.29173 539.04376 153.82298Q539.21564 153.46361 539.21564 152.77611L539.21564 152.38548ZM546.3094 153.22923L547.34064 153.36986Q547.16876 154.43236 546.46564 155.04173Q545.7625 155.65111 544.7469 155.65111Q543.46564 155.65111 542.6844 154.82298Q541.91876 153.97923 541.91876 152.41673Q541.91876 151.41673 542.2469 150.66673Q542.59064 149.90111 543.2625 149.52611Q543.95 149.15111 544.7625 149.15111Q545.7625 149.15111 546.40314 149.66673Q547.0594 150.16673 547.2469 151.11986L546.21564 151.27611Q546.075 150.65111 545.7 150.33861Q545.325 150.01048 544.79376 150.01048Q543.9969 150.01048 543.4969 150.58861Q542.9969 151.15111 542.9969 152.38548Q542.9969 153.65111 543.48126 154.21361Q543.96564 154.77611 544.73126 154.77611Q545.35626 154.77611 545.7625 154.40111Q546.1844 154.02611 546.3094 153.22923ZM552.4969 153.51048L553.59064 153.63548Q553.34064 154.58861 552.6375 155.11986Q551.9344 155.65111 550.85626 155.65111Q549.4969 155.65111 548.6844 154.80736Q547.8875 153.96361 547.8875 152.44798Q547.8875 150.88548 548.7 150.02611Q549.5125 149.15111 550.79376 149.15111Q552.04376 149.15111 552.825 149.99486Q553.6219 150.83861 553.6219 152.38548Q553.6219 152.47923 553.6219 152.66673L548.98126 152.66673Q549.04376 153.69798 549.5594 154.24486Q550.075 154.77611 550.85626 154.77611Q551.4344 154.77611 551.84064 154.47923Q552.2625 154.16673 552.4969 153.51048ZM549.04376 151.80736L552.5125 151.80736Q552.45 151.01048 552.1219 150.61986Q551.60626 150.01048 550.8094 150.01048Q550.075 150.01048 549.575 150.49486Q549.09064 150.97923 549.04376 151.80736ZM556.21564 155.51048L555.23126 155.51048L555.23126 146.91673L556.29376 146.91673L556.29376 149.97923Q556.96564 149.15111 557.9969 149.15111Q558.575 149.15111 559.075 149.38548Q559.59064 149.60423 559.91876 150.02611Q560.2625 150.44798 560.45 151.04173Q560.6375 151.63548 560.6375 152.30736Q560.6375 153.90111 559.84064 154.77611Q559.04376 155.65111 557.95 155.65111Q556.84064 155.65111 556.21564 154.72923L556.21564 155.51048ZM556.2 152.35423Q556.2 153.46361 556.5125 153.96361Q557.0125 154.77611 557.85626 154.77611Q558.54376 154.77611 559.04376 154.18236Q559.5594 153.58861 559.5594 152.38548Q559.5594 151.16673 559.075 150.58861Q558.59064 150.01048 557.90314 150.01048Q557.21564 150.01048 556.7 150.61986Q556.2 151.21361 556.2 152.35423ZM561.85626 152.40111Q561.85626 150.66673 562.8094 149.83861Q563.60626 149.15111 564.7625 149.15111Q566.04376 149.15111 566.85626 149.99486Q567.6844 150.82298 567.6844 152.30736Q567.6844 153.51048 567.325 154.19798Q566.96564 154.88548 566.2625 155.27611Q565.575 155.65111 564.7625 155.65111Q563.46564 155.65111 562.65314 154.82298Q561.85626 153.97923 561.85626 152.40111ZM562.9344 152.40111Q562.9344 153.58861 563.45 154.18236Q563.98126 154.77611 564.7625 154.77611Q565.5594 154.77611 566.075 154.18236Q566.59064 153.58861 566.59064 152.36986Q566.59064 151.21361 566.0594 150.61986Q565.54376 150.02611 564.7625 150.02611Q563.98126 150.02611 563.45 150.61986Q562.9344 151.19798 562.9344 152.40111ZM568.85626 152.40111Q568.85626 150.66673 569.8094 149.83861Q570.60626 149.15111 571.7625 149.15111Q573.04376 149.15111 573.85626 149.99486Q574.6844 150.82298 574.6844 152.30736Q574.6844 153.51048 574.325 154.19798Q573.96564 154.88548 573.2625 155.27611Q572.575 155.65111 571.7625 155.65111Q570.46564 155.65111 569.65314 154.82298Q568.85626 153.97923 568.85626 152.40111ZM569.9344 152.40111Q569.9344 153.58861 570.45 154.18236Q570.98126 154.77611 571.7625 154.77611Q572.5594 154.77611 573.075 154.18236Q573.59064 153.58861 573.59064 152.36986Q573.59064 151.21361 573.0594 150.61986Q572.54376 150.02611 571.7625 150.02611Q570.98126 150.02611 570.45 150.61986Q569.9344 151.19798 569.9344 152.40111ZM576.2469 155.51048L576.2469 146.91673L577.3094 146.91673L577.3094 151.82298L579.79376 149.29173L581.16876 149.29173L578.77814 151.58861L581.40314 155.51048L580.10626 155.51048L578.04376 152.32298L577.3094 153.04173L577.3094 155.51048L576.2469 155.51048Z" fill-rule="nonzero"/><path fill="#9e9e9e" d="M550.325 172.51048L550.325 170.44798L546.60626 170.44798L546.60626 169.47923L550.52814 163.91673L551.3875 163.91673L551.3875 169.47923L552.54376 169.47923L552.54376 170.44798L551.3875 170.44798L551.3875 172.51048L550.325 172.51048ZM550.325 169.47923L550.325 165.61986L547.6375 169.47923L550.325 169.47923ZM553.95 168.27611Q553.95 166.74486 554.2625 165.82298Q554.575 164.88548 555.1844 164.38548Q555.8094 163.88548 556.7469 163.88548Q557.4344 163.88548 557.95 164.16673Q558.48126 164.44798 558.825 164.97923Q559.16876 165.49486 559.35626 166.24486Q559.54376 166.99486 559.54376 168.27611Q559.54376 169.79173 559.23126 170.71361Q558.9344 171.63548 558.3094 172.15111Q557.7 172.65111 556.7469 172.65111Q555.5125 172.65111 554.79376 171.76048Q553.95 170.69798 553.95 168.27611ZM555.02814 168.27611Q555.02814 170.38548 555.52814 171.08861Q556.02814 171.79173 556.7469 171.79173Q557.48126 171.79173 557.96564 171.08861Q558.46564 170.38548 558.46564 168.27611Q558.46564 166.15111 557.96564 165.46361Q557.48126 164.76048 556.73126 164.76048Q556.0125 164.76048 555.575 165.36986Q555.02814 166.15111 555.02814 168.27611ZM561.54376 172.51048L561.54376 171.30736L562.7469 171.30736L562.7469 172.51048L561.54376 172.51048ZM563.95 168.27611Q563.95 166.74486 564.2625 165.82298Q564.575 164.88548 565.1844 164.38548Q565.8094 163.88548 566.7469 163.88548Q567.4344 163.88548 567.95 164.16673Q568.48126 164.44798 568.825 164.97923Q569.16876 165.49486 569.35626 166.24486Q569.54376 166.99486 569.54376 168.27611Q569.54376 169.79173 569.23126 170.71361Q568.9344 171.63548 568.3094 172.15111Q567.7 172.65111 566.7469 172.65111Q565.5125 172.65111 564.79376 171.76048Q563.95 170.69798 563.95 168.27611ZM565.02814 168.27611Q565.02814 170.38548 565.52814 171.08861Q566.02814 171.79173 566.7469 171.79173Q567.48126 171.79173 567.96564 171.08861Q568.46564 170.38548 568.46564 168.27611Q568.46564 166.15111 567.96564 165.46361Q567.48126 164.76048 566.73126 164.76048Q566.0125 164.76048 565.575 165.36986Q565.02814 166.15111 565.02814 168.27611ZM571.15314 165.97923Q571.15314 165.05736 571.60626 164.41673Q572.075 163.77611 572.95 163.77611Q573.7625 163.77611 574.29376 164.35423Q574.825 164.93236 574.825 166.04173Q574.825 167.13548 574.27814 167.72923Q573.7469 168.30736 572.96564 168.30736Q572.1844 168.30736 571.66876 167.72923Q571.15314 167.15111 571.15314 165.97923ZM572.98126 164.49486Q572.59064 164.49486 572.325 164.83861Q572.075 165.18236 572.075 166.08861Q572.075 166.91673 572.325 167.26048Q572.59064 167.58861 572.98126 167.58861Q573.3875 167.58861 573.6375 167.24486Q573.90314 166.90111 573.90314 166.01048Q573.90314 165.16673 573.6375 164.83861Q573.3719 164.49486 572.98126 164.49486ZM572.98126 172.82298L577.6844 163.77611L578.54376 163.77611L573.85626 172.82298L572.98126 172.82298ZM576.7 170.49486Q576.7 169.57298 577.15314 168.93236Q577.6219 168.29173 578.5125 168.29173Q579.325 168.29173 579.85626 168.86986Q580.3875 169.43236 580.3875 170.55736Q580.3875 171.65111 579.84064 172.24486Q579.3094 172.82298 578.5125 172.82298Q577.7469 172.82298 577.21564 172.24486Q576.7 171.66673 576.7 170.49486ZM578.54376 169.01048Q578.1375 169.01048 577.8719 169.35423Q577.6219 169.69798 577.6219 170.60423Q577.6219 171.41673 577.8875 171.76048Q578.15314 172.10423 578.54376 172.10423Q578.9344 172.10423 579.2 171.76048Q579.46564 171.41673 579.46564 170.51048Q579.46564 169.68236 579.2 169.35423Q578.9344 169.01048 578.54376 169.01048Z" fill-rule="nonzero"/><path stroke="#757575" stroke-width="1.0" stroke-linecap="butt" d="M581.45 160.01048L454.76666 160.01048L434.41122 160.01048" fill-rule="nonzero"/><path fill="#9e9e9e" d="M436.41122 160.01048C436.41122 158.90591 435.5158 158.01048 434.41122 158.01048C433.30667 158.01048 432.41122 158.90591 432.41122 160.01048C432.41122 161.11505 433.30667 162.01048 434.41122 162.01048C435.5158 162.01048 436.41122 161.11505 436.41122 160.01048" fill-rule="nonzero"/><path fill="#757575" d="M20.096874 37.55L20.096874 23.2375L25.4875 23.2375Q26.925 23.2375 27.675 23.3625Q28.721874 23.55 29.440624 24.05Q30.159374 24.534374 30.58125 25.425Q31.01875 26.315624 31.01875 27.378124Q31.01875 29.20625 29.846874 30.471874Q28.690624 31.721874 25.659374 31.721874L21.9875 31.721874L21.9875 37.55L20.096874 37.55ZM21.9875 30.034374L25.690624 30.034374Q27.51875 30.034374 28.284374 29.3625Q29.065624 28.675 29.065624 27.425Q29.065624 26.534374 28.6125 25.89375Q28.159374 25.253124 27.425 25.05Q26.940624 24.925 25.64375 24.925L21.9875 24.925L21.9875 30.034374ZM32.8625 37.55L32.8625 23.2375L34.628124 23.2375L34.628124 28.3625Q35.8625 26.940624 37.7375 26.940624Q38.878124 26.940624 39.721874 27.39375Q40.58125 27.846874 40.940624 28.659374Q41.315624 29.45625 41.315624 30.971874L41.315624 37.55L39.565624 37.55L39.565624 30.971874Q39.565624 29.659374 38.9875 29.065624Q38.409374 28.45625 37.378124 28.45625Q36.596874 28.45625 35.89375 28.8625Q35.20625 29.26875 34.909374 29.971874Q34.628124 30.659374 34.628124 31.878124L34.628124 37.55L32.8625 37.55ZM49.64375 36.26875Q48.659374 37.096874 47.753124 37.440624Q46.846874 37.784374 45.815624 37.784374Q44.1125 37.784374 43.190624 36.95625Q42.26875 36.1125 42.26875 34.815624Q42.26875 34.05 42.6125 33.425Q42.971874 32.8 43.534374 32.425Q44.096874 32.034374 44.8 31.83125Q45.315624 31.70625 46.3625 31.565624Q48.4875 31.315624 49.4875 30.971874Q49.503124 30.6125 49.503124 30.503124Q49.503124 29.440624 49.003124 28.9875Q48.33125 28.39375 47.003124 28.39375Q45.753124 28.39375 45.159374 28.83125Q44.58125 29.26875 44.3 30.378124L42.58125 30.14375Q42.815624 29.034374 43.346874 28.3625Q43.878124 27.675 44.89375 27.315624Q45.909374 26.940624 47.253124 26.940624Q48.58125 26.940624 49.409374 27.253124Q50.2375 27.565624 50.628124 28.05Q51.01875 28.51875 51.175 29.2375Q51.26875 29.690624 51.26875 30.8625L51.26875 33.20625Q51.26875 35.659374 51.378124 36.315624Q51.4875 36.95625 51.83125 37.55L49.9875 37.55Q49.721874 37.003124 49.64375 36.26875ZM49.4875 32.346874Q48.534374 32.7375 46.6125 33.003124Q45.534374 33.159374 45.08125 33.3625Q44.64375 33.55 44.39375 33.925Q44.14375 34.3 44.14375 34.76875Q44.14375 35.471874 44.675 35.940624Q45.20625 36.409374 46.2375 36.409374Q47.253124 36.409374 48.034374 35.971874Q48.83125 35.51875 49.20625 34.753124Q49.4875 34.14375 49.4875 32.9875L49.4875 32.346874ZM47.08125 24.221874L45.971874 25.89375L43.971874 25.89375L46.08125 23.159374L47.95625 23.159374L50.14375 25.89375L48.159374 25.89375L47.08125 24.221874ZM47.940624 22.440624L46.534374 22.440624L44.26875 19.70625L46.628124 19.70625L47.940624 22.440624ZM53.8625 37.55L53.8625 27.175L55.45625 27.175L55.45625 28.659374Q56.596874 26.940624 58.753124 26.940624Q59.690624 26.940624 60.471874 27.284374Q61.26875 27.6125 61.659374 28.159374Q62.05 28.70625 62.20625 29.45625Q62.3 29.95625 62.3 31.175L62.3 37.55L60.534374 37.55L60.534374 31.2375Q60.534374 30.159374 60.33125 29.628124Q60.128124 29.096874 59.596874 28.784374Q59.08125 28.471874 58.378124 28.471874Q57.253124 28.471874 56.440624 29.190624Q55.628124 29.89375 55.628124 31.878124L55.628124 37.55L53.8625 37.55ZM73.70625 35.971874L73.95625 37.534374Q73.22188 37.690624 72.62813 37.690624Q71.675 37.690624 71.14375 37.39375Q70.62813 37.08125 70.40938 36.596874Q70.19063 36.096874 70.19063 34.51875L70.19063 28.55L68.90938 28.55L68.90938 27.175L70.19063 27.175L70.19063 24.6125L71.94063 23.55L71.94063 27.175L73.70625 27.175L73.70625 28.55L71.94063 28.55L71.94063 34.6125Q71.94063 35.3625 72.03438 35.58125Q72.12813 35.784374 72.33125 35.925Q72.55 36.05 72.94063 36.05Q73.22188 36.05 73.70625 35.971874ZM75.84688 37.55L75.84688 27.175L77.425 27.175L77.425 28.753124Q78.03438 27.64375 78.55 27.3Q79.06563 26.940624 79.675 26.940624Q80.56563 26.940624 81.4875 27.503124L80.87813 29.14375Q80.2375 28.753124 79.59688 28.753124Q79.01875 28.753124 78.55 29.1125Q78.09688 29.45625 77.89375 30.065624Q77.6125 31.003124 77.6125 32.1125L77.6125 37.55L75.84688 37.55ZM89.64375 36.26875Q88.65938 37.096874 87.75313 37.440624Q86.84688 37.784374 85.81563 37.784374Q84.1125 37.784374 83.19063 36.95625Q82.26875 36.1125 82.26875 34.815624Q82.26875 34.05 82.6125 33.425Q82.97188 32.8 83.53438 32.425Q84.09688 32.034374 84.8 31.83125Q85.31563 31.70625 86.3625 31.565624Q88.4875 31.315624 89.4875 30.971874Q89.50313 30.6125 89.50313 30.503124Q89.50313 29.440624 89.00313 28.9875Q88.33125 28.39375 87.00313 28.39375Q85.75313 28.39375 85.15938 28.83125Q84.58125 29.26875 84.3 30.378124L82.58125 30.14375Q82.81563 29.034374 83.34688 28.3625Q83.87813 27.675 84.89375 27.315624Q85.90938 26.940624 87.25313 26.940624Q88.58125 26.940624 89.40938 27.253124Q90.2375 27.565624 90.62813 28.05Q91.01875 28.51875 91.175 29.2375Q91.26875 29.690624 91.26875 30.8625L91.26875 33.20625Q91.26875 35.659374 91.37813 36.315624Q91.4875 36.95625 91.83125 37.55L89.9875 37.55Q89.72188 37.003124 89.64375 36.26875ZM89.4875 32.346874Q88.53438 32.7375 86.6125 33.003124Q85.53438 33.159374 85.08125 33.3625Q84.64375 33.55 84.39375 33.925Q84.14375 34.3 84.14375 34.76875Q84.14375 35.471874 84.675 35.940624Q85.20625 36.409374 86.2375 36.409374Q87.25313 36.409374 88.03438 35.971874Q88.83125 35.51875 89.20625 34.753124Q89.4875 34.14375 89.4875 32.9875L89.4875 32.346874ZM88.95625 23.253124L90.15938 23.253124Q90.01875 24.471874 89.26875 25.128124Q88.51875 25.784374 87.28438 25.784374Q86.03438 25.784374 85.28438 25.14375Q84.53438 24.4875 84.39375 23.253124L85.59688 23.253124Q85.72188 23.909374 86.12813 24.2375Q86.53438 24.565624 87.22188 24.565624Q88.01875 24.565624 88.425 24.253124Q88.83125 23.940624 88.95625 23.253124ZM93.8625 37.55L93.8625 27.175L95.44063 27.175L95.44063 28.628124Q95.925 27.878124 96.7375 27.409374Q97.55 26.940624 98.58125 26.940624Q99.7375 26.940624 100.47188 27.425Q101.20625 27.89375 101.51875 28.753124Q102.75313 26.940624 104.72188 26.940624Q106.26875 26.940624 107.09688 27.8Q107.925 28.659374 107.925 30.425L107.925 37.55L106.175 37.55L106.175 31.01875Q106.175 29.95625 106.00313 29.503124Q105.83125 29.034374 105.37813 28.753124Q104.94063 28.471874 104.33125 28.471874Q103.2375 28.471874 102.50313 29.20625Q101.78438 29.925 101.78438 31.51875L101.78438 37.55L100.03438 37.55L100.03438 30.815624Q100.03438 29.64375 99.59688 29.065624Q99.175 28.471874 98.19063 28.471874Q97.45625 28.471874 96.81563 28.8625Q96.19063 29.253124 95.90938 30.003124Q95.62813 30.753124 95.62813 32.175L95.62813 37.55L93.8625 37.55ZM115.8625 37.55L115.8625 27.175L117.45625 27.175L117.45625 28.659374Q118.59688 26.940624 120.75313 26.940624Q121.69063 26.940624 122.47188 27.284374Q123.26875 27.6125 123.65938 28.159374Q124.05 28.70625 124.20625 29.45625Q124.3 29.95625 124.3 31.175L124.3 37.55L122.53438 37.55L122.53438 31.2375Q122.53438 30.159374 122.33125 29.628124Q122.12813 29.096874 121.59688 28.784374Q121.08125 28.471874 120.37813 28.471874Q119.25313 28.471874 118.44063 29.190624Q117.62813 29.89375 117.62813 31.878124L117.62813 37.55L115.8625 37.55ZM125.55 38.409374L127.25313 38.659374Q127.3625 39.45625 127.84688 39.815624Q128.50313 40.3 129.64375 40.3Q130.8625 40.3 131.51875 39.815624Q132.19063 39.33125 132.425 38.45625Q132.56563 37.909374 132.55 36.190624Q131.39375 37.55 129.675 37.55Q127.53438 37.55 126.3625 36.003124Q125.19063 34.45625 125.19063 32.3Q125.19063 30.815624 125.72188 29.565624Q126.26875 28.315624 127.28438 27.628124Q128.31563 26.940624 129.69063 26.940624Q131.51875 26.940624 132.72188 28.425L132.72188 27.175L134.33125 27.175L134.33125 36.14375Q134.33125 38.565624 133.83125 39.565624Q133.34688 40.58125 132.26875 41.159374Q131.20625 41.753124 129.64375 41.753124Q127.8 41.753124 126.64375 40.925Q125.50313 40.096874 125.55 38.409374ZM127.00313 32.175Q127.00313 34.221874 127.81563 35.159374Q128.62813 36.096874 129.84688 36.096874Q131.05 36.096874 131.8625 35.159374Q132.69063 34.221874 132.69063 32.2375Q132.69063 30.33125 131.84688 29.3625Q131.00313 28.39375 129.81563 28.39375Q128.64375 28.39375 127.81563 29.346874Q127.00313 30.3 127.00313 32.175ZM143.64375 36.26875Q142.65938 37.096874 141.75313 37.440624Q140.84688 37.784374 139.81563 37.784374Q138.1125 37.784374 137.19063 36.95625Q136.26875 36.1125 136.26875 34.815624Q136.26875 34.05 136.6125 33.425Q136.97188 32.8 137.53438 32.425Q138.09688 32.034374 138.8 31.83125Q139.31563 31.70625 140.3625 31.565624Q142.4875 31.315624 143.4875 30.971874Q143.50313 30.6125 143.50313 30.503124Q143.50313 29.440624 143.00313 28.9875Q142.33125 28.39375 141.00313 28.39375Q139.75313 28.39375 139.15938 28.83125Q138.58125 29.26875 138.3 30.378124L136.58125 30.14375Q136.81563 29.034374 137.34688 28.3625Q137.87813 27.675 138.89375 27.315624Q139.90938 26.940624 141.25313 26.940624Q142.58125 26.940624 143.40938 27.253124Q144.2375 27.565624 144.62813 28.05Q145.01875 28.51875 145.175 29.2375Q145.26875 29.690624 145.26875 30.8625L145.26875 33.20625Q145.26875 35.659374 145.37813 36.315624Q145.4875 36.95625 145.83125 37.55L143.9875 37.55Q143.72188 37.003124 143.64375 36.26875ZM143.4875 32.346874Q142.53438 32.7375 140.6125 33.003124Q139.53438 33.159374 139.08125 33.3625Q138.64375 33.55 138.39375 33.925Q138.14375 34.3 138.14375 34.76875Q138.14375 35.471874 138.675 35.940624Q139.20625 36.409374 140.2375 36.409374Q141.25313 36.409374 142.03438 35.971874Q142.83125 35.51875 143.20625 34.753124Q143.4875 34.14375 143.4875 32.9875L143.4875 32.346874ZM141.08125 24.221874L139.97188 25.89375L137.97188 25.89375L140.08125 23.159374L141.95625 23.159374L144.14375 25.89375L142.15938 25.89375L141.08125 24.221874ZM147.8625 37.55L147.8625 27.175L149.45625 27.175L149.45625 28.659374Q150.59688 26.940624 152.75313 26.940624Q153.69063 26.940624 154.47188 27.284374Q155.26875 27.6125 155.65938 28.159374Q156.05 28.70625 156.20625 29.45625Q156.3 29.95625 156.3 31.175L156.3 37.55L154.53438 37.55L154.53438 31.2375Q154.53438 30.159374 154.33125 29.628124Q154.12813 29.096874 153.59688 28.784374Q153.08125 28.471874 152.37813 28.471874Q151.25313 28.471874 150.44063 29.190624Q149.62813 29.89375 149.62813 31.878124L149.62813 37.55L147.8625 37.55ZM163.15938 34.45625L164.90938 34.175Q165.05 35.221874 165.72188 35.784374Q166.39375 36.33125 167.59688 36.33125Q168.8 36.33125 169.37813 35.846874Q169.97188 35.346874 169.97188 34.690624Q169.97188 34.096874 169.45625 33.753124Q169.09688 33.51875 167.65938 33.159374Q165.72188 32.659374 164.97188 32.315624Q164.2375 31.95625 163.84688 31.33125Q163.45625 30.690624 163.45625 29.925Q163.45625 29.2375 163.76875 28.64375Q164.09688 28.05 164.64375 27.659374Q165.05 27.3625 165.75313 27.159374Q166.47188 26.940624 167.28438 26.940624Q168.50313 26.940624 169.425 27.3Q170.34688 27.64375 170.78438 28.253124Q171.22188 28.846874 171.39375 29.846874L169.675 30.08125Q169.55 29.284374 168.9875 28.846874Q168.425 28.39375 167.40938 28.39375Q166.19063 28.39375 165.675 28.8Q165.15938 29.190624 165.15938 29.721874Q165.15938 30.065624 165.37813 30.346874Q165.58125 30.628124 166.05 30.815624Q166.31563 30.909374 167.59688 31.253124Q169.47188 31.753124 170.20625 32.08125Q170.94063 32.39375 171.3625 33.003124Q171.78438 33.596874 171.78438 34.503124Q171.78438 35.378124 171.26875 36.159374Q170.75313 36.940624 169.78438 37.3625Q168.81563 37.784374 167.59688 37.784374Q165.58125 37.784374 164.51875 36.940624Q163.45625 36.096874 163.15938 34.45625ZM180.64375 36.26875Q179.65938 37.096874 178.75313 37.440624Q177.84688 37.784374 176.81563 37.784374Q175.1125 37.784374 174.19063 36.95625Q173.26875 36.1125 173.26875 34.815624Q173.26875 34.05 173.6125 33.425Q173.97188 32.8 174.53438 32.425Q175.09688 32.034374 175.8 31.83125Q176.31563 31.70625 177.3625 31.565624Q179.4875 31.315624 180.4875 30.971874Q180.50313 30.6125 180.50313 30.503124Q180.50313 29.440624 180.00313 28.9875Q179.33125 28.39375 178.00313 28.39375Q176.75313 28.39375 176.15938 28.83125Q175.58125 29.26875 175.3 30.378124L173.58125 30.14375Q173.81563 29.034374 174.34688 28.3625Q174.87813 27.675 175.89375 27.315624Q176.90938 26.940624 178.25313 26.940624Q179.58125 26.940624 180.40938 27.253124Q181.2375 27.565624 181.62813 28.05Q182.01875 28.51875 182.175 29.2375Q182.26875 29.690624 182.26875 30.8625L182.26875 33.20625Q182.26875 35.659374 182.37813 36.315624Q182.4875 36.95625 182.83125 37.55L180.9875 37.55Q180.72188 37.003124 180.64375 36.26875ZM180.4875 32.346874Q179.53438 32.7375 177.6125 33.003124Q176.53438 33.159374 176.08125 33.3625Q175.64375 33.55 175.39375 33.925Q175.14375 34.3 175.14375 34.76875Q175.14375 35.471874 175.675 35.940624Q176.20625 36.409374 177.2375 36.409374Q178.25313 36.409374 179.03438 35.971874Q179.83125 35.51875 180.20625 34.753124Q180.4875 34.14375 180.4875 32.9875L180.4875 32.346874ZM177.08125 25.89375L178.37813 23.159374L180.675 23.159374L178.53438 25.89375L177.08125 25.89375ZM191.64375 33.753124L193.3625 33.971874Q193.08125 35.76875 191.90938 36.784374Q190.75313 37.784374 189.05 37.784374Q186.925 37.784374 185.62813 36.39375Q184.33125 35.003124 184.33125 32.409374Q184.33125 30.721874 184.87813 29.471874Q185.44063 28.20625 186.58125 27.58125Q187.72188 26.940624 189.06563 26.940624Q190.75313 26.940624 191.81563 27.8Q192.89375 28.659374 193.20625 30.221874L191.4875 30.4875Q191.25313 29.440624 190.62813 28.925Q190.00313 28.39375 189.12813 28.39375Q187.8 28.39375 186.97188 29.346874Q186.14375 30.3 186.14375 32.346874Q186.14375 34.440624 186.94063 35.39375Q187.7375 36.33125 189.03438 36.33125Q190.06563 36.33125 190.75313 35.70625Q191.45625 35.065624 191.64375 33.753124ZM194.8625 37.55L194.8625 23.2375L196.62813 23.2375L196.62813 28.3625Q197.8625 26.940624 199.7375 26.940624Q200.87813 26.940624 201.72188 27.39375Q202.58125 27.846874 202.94063 28.659374Q203.31563 29.45625 203.31563 30.971874L203.31563 37.55L201.56563 37.55L201.56563 30.971874Q201.56563 29.659374 200.9875 29.065624Q200.40938 28.45625 199.37813 28.45625Q198.59688 28.45625 197.89375 28.8625Q197.20625 29.26875 196.90938 29.971874Q196.62813 30.659374 196.62813 31.878124L196.62813 37.55L194.8625 37.55Z" fill-rule="nonzero"/></svg>